#!OML:ASF X:\für Bonn\!DataBase\2005_08_10_Bjorn_Final\c3d\bjorn.ASF
:FULLY-SPECIFIED
:DEGREES
76
root 0.382097 19.3494 2.10422 -173.316 -2.68466 176.389
lowerback -17.3359 -0.500689 -6.02081
upperback 0.273088 0.533276 -1.57976
thorax 10.0272 -0.0871691 1.81779
lowerneck 21.0688 -3.45693 4.51172
upperneck 25.5931 -11.416 1.39792
head 4.71261 -7.62985 -0.237065
rclavicle 2.14315e-016 8.74653e-015
rhumerus -1073.53 -52.187 1100.42
rradius 35.3102
rwrist 7.13842
rhand -33.8469 4.22486
rfingers 7.12502
rthumb -7.03181 -25.6383
lclavicle 2.14315e-016 8.74653e-015
lhumerus 32.015 57.6832 -5.05044
lradius 23.884
lwrist -25.6555
lhand -24.8967 14.6413
lfingers 7.12502
lthumb 1.61132 44.6149
rfemur -13.4246 -13.9826 10.8532
rtibia 31.1272
rfoot -16.6091 12.524
rtoes -22.1743
lfemur -12.2767 4.27708 -18.905
ltibia 28.0673
lfoot -10.0631 -13.4697
ltoes -0.511996
77
root 0.390103 19.3546 2.09361 -173.23 -2.85275 176.443
lowerback -17.3443 -0.605188 -6.10446
upperback 0.357447 0.417106 -1.49652
thorax 10.1344 -0.149615 1.9262
lowerneck 21.6551 -3.41951 4.33334
upperneck 25.1477 -11.3057 1.48874
head 4.50377 -7.59532 -0.135857
rclavicle 1.15357e-014 1.74931e-014
rhumerus -1078.69 -53.4583 1103.81
rradius 35.0331
rwrist 5.49267
rhand -35.0006 3.27996
rfingers 7.12502
rthumb -8.14535 -26.543
lclavicle 1.15357e-014 1.74931e-014
lhumerus 26.3896 58.5163 -9.34739
lradius 24.0631
lwrist -22.3571
lhand -25.8199 15.2399
lfingers 7.12502
lthumb 0.719651 45.2184
rfemur -13.4372 -14.1254 10.9392
rtibia 31.1116
rfoot -16.5546 12.5172
rtoes -22.4142
lfemur -12.3921 4.32509 -18.7775
ltibia 28.1309
lfoot -9.84944 -13.7211
ltoes -0.193899
78
root 0.396184 19.3594 2.08415 -173.135 -3.01513 176.476
lowerback -17.379 -0.701243 -6.18078
upperback 0.451336 0.314279 -1.43151
thorax 10.2671 -0.206159 2.01365
lowerneck 22.2621 -3.38383 4.19091
upperneck 24.6856 -11.1857 1.56716
head 4.28633 -7.5525 -0.0439315
rclavicle 1.14038e-014 5.64548e-014
rhumerus -1084.11 -54.4613 1107.43
rradius 34.412
rwrist 3.95461
rhand -35.718 3.18743
rfingers 7.12502
rthumb -8.83765 -26.6075
lclavicle 1.14038e-014 5.64548e-014
lhumerus 20.6486 59.237 -13.6516
lradius 24.1684
lwrist -19.2497
lhand -26.6253 15.7764
lfingers 7.12502
lthumb -0.0581678 45.7561
rfemur -13.4627 -14.2899 10.9896
rtibia 31.0966
rfoot -16.4175 12.5826
rtoes -22.3212
lfemur -12.5165 4.37411 -18.6886
ltibia 28.1899
lfoot -9.67197 -13.918
ltoes -0.270614
79
root 0.402926 19.3639 2.07721 -173.022 -3.14594 176.466
lowerback -17.4682 -0.787612 -6.30641
upperback 0.595628 0.243313 -1.36727
thorax 10.4857 -0.253055 2.13581
lowerneck 22.8021 -3.35513 3.99997
upperneck 24.1708 -11.0542 1.66524
head 4.06271 -7.49542 0.0601698
rclavicle -6.55368e-015 -2.66371e-014
rhumerus -1089.84 -55.3019 1111.31
rradius 33.5378
rwrist 3.14182
rhand -35.4958 3.30314
rfingers 7.12502
rthumb -8.62325 -26.5007
lclavicle -6.55368e-015 -2.66371e-014
lhumerus 14.5894 59.7092 -18.0396
lradius 24.1744
lwrist -16.1013
lhand -27.5419 15.6783
lfingers 7.12502
lthumb -0.943451 45.656
rfemur -13.5315 -14.4559 11.0041
rtibia 31.095
rfoot -16.3103 12.6023
rtoes -22.5465
lfemur -12.6496 4.43069 -18.6449
ltibia 28.2283
lfoot -9.41786 -14.1366
ltoes 0.163966
80
root 0.408095 19.3688 2.07277 -172.893 -3.22577 176.468
lowerback -17.596 -0.866558 -6.39609
upperback 0.761327 0.179652 -1.29713
thorax 10.7511 -0.296413 2.2457
lowerneck 23.3402 -3.32195 3.80413
upperneck 23.6345 -10.8996 1.70959
head 3.83008 -7.42472 0.147254
rclavicle 2.70223e-016 1.66979e-014
rhumerus -1095.67 -55.2751 1115.22
rradius 32.4779
rwrist 2.8191
rhand -35.0115 2.21694
rfingers 7.12502
rthumb -8.15588 -27.6057
lclavicle 2.70223e-016 1.66979e-014
lhumerus 7.8485 59.2889 -22.8866
lradius 24.1785
lwrist -12.9653
lhand -28.4602 15.2636
lfingers 7.12502
lthumb -1.83039 45.2355
rfemur -13.6503 -14.631 11.0272
rtibia 31.1002
rfoot -16.1803 12.6946
rtoes -22.7461
lfemur -12.8 4.49367 -18.6054
ltibia 28.2507
lfoot -9.20195 -14.2901
ltoes 0.619408
81
root 0.411265 19.3739 2.0716 -172.741 -3.28115 176.488
lowerback -17.7736 -0.921744 -6.45289
upperback 0.946468 0.145409 -1.21158
thorax 11.0655 -0.326245 2.36162
lowerneck 23.8944 -3.30031 3.60137
upperneck 23.0733 -10.7497 1.72752
head 3.58739 -7.35332 0.227903
rclavicle 7.21216e-015 7.55382e-015
rhumerus -1101.45 -54.8103 1119.07
rradius 31.267
rwrist 2.52581
rhand -34.1027 1.19302
rfingers 7.12502
rthumb -7.27871 -28.6618
lclavicle 7.21216e-015 7.55382e-015
lhumerus 1.32155 58.0907 -27.1872
lradius 24.2954
lwrist -10.6528
lhand -29.1065 16.1944
lfingers 7.12502
lthumb -2.45457 46.16
rfemur -13.8191 -14.7905 11.0665
rtibia 31.1097
rfoot -16.0193 12.8019
rtoes -22.7072
lfemur -12.9833 4.60158 -18.5599
ltibia 28.2579
lfoot -8.9859 -14.4788
ltoes 0.92424
82
root 0.415064 19.3787 2.07204 -172.599 -3.31028 176.554
lowerback -17.9781 -0.955443 -6.46628
upperback 1.13842 0.131962 -1.11253
thorax 11.4025 -0.34518 2.47376
lowerneck 24.9893 -3.28211 3.38931
upperneck 21.8471 -10.5351 1.7959
head 3.44923 -7.27194 0.363332
rclavicle -8.63471e-016 9.34288e-015
rhumerus -1106.76 -53.3934 1122.22
rradius 30.184
rwrist 1.42673
rhand -33.451 0.286527
rfingers 7.12502
rthumb -6.64956 -29.5891
lclavicle -8.63471e-016 9.34288e-015
lhumerus -4.77308 56.3338 -30.7801
lradius 24.4135
lwrist -8.7712
lhand -29.4124 17.4402
lfingers 7.12502
lthumb -2.75003 47.4022
rfemur -13.987 -14.8809 11.1668
rtibia 31.1207
rfoot -15.9309 12.8418
rtoes -22.9487
lfemur -13.1573 4.71995 -18.4689
ltibia 28.2584
lfoot -8.8418 -14.6018
ltoes 1.11311
83
root 0.418137 19.3838 2.07436 -172.437 -3.35061 176.638
lowerback -18.2729 -1.01011 -6.45971
upperback 1.38646 0.0952575 -0.983859
thorax 11.8598 -0.378826 2.60109
lowerneck 25.6045 -3.15833 2.89127
upperneck 21.2045 -10.3142 1.98252
head 3.14482 -7.17525 0.551947
rclavicle 3.5657e-015 -1.13307e-014
rhumerus -1111.12 -50.8292 1123.95
rradius 29.2428
rwrist -1.79852
rhand -33.4344 0.149966
rfingers 7.12502
rthumb -6.63362 -29.7261
lclavicle 3.5657e-015 -1.13307e-014
lhumerus -10.4757 53.9707 -33.6074
lradius 24.4418
lwrist -7.37628
lhand -29.565 18.6313
lfingers 7.12502
lthumb -2.89738 48.5913
rfemur -14.1874 -15.0191 11.2871
rtibia 31.1246
rfoot -15.807 12.9014
rtoes -23.0943
lfemur -13.3642 4.82032 -18.3639
ltibia 28.261
lfoot -8.71978 -14.7381
ltoes 1.40169
84
root 0.420204 19.3868 2.07992 -172.3 -3.38305 176.76
lowerback -18.5579 -1.01708 -6.377
upperback 1.65038 0.105841 -0.876534
thorax 12.3273 -0.385695 2.67555
lowerneck 26.205 -3.05817 2.42834
upperneck 20.5394 -10.1165 2.19833
head 2.83795 -7.08261 0.744102
rclavicle 2.93207e-015 -3.18055e-015
rhumerus -1114.95 -47.5341 1124.55
rradius 28.4364
rwrist -5.72801
rhand -33.5001 -0.561634
rfingers 7.12502
rthumb -6.69702 -30.4357
lclavicle 2.93207e-015 -3.18055e-015
lhumerus -15.3207 51.252 -35.2965
lradius 24.3713
lwrist -6.08045
lhand -29.357 19.3188
lfingers 7.12502
lthumb -2.69651 49.2815
rfemur -14.3736 -15.1268 11.4477
rtibia 31.1315
rfoot -15.7636 12.9145
rtoes -23.5145
lfemur -13.5495 4.96454 -18.2198
ltibia 28.2567
lfoot -8.5885 -14.9138
ltoes 1.66931
85
root 0.421544 19.3893 2.0871 -172.191 -3.38807 176.886
lowerback -18.8326 -1.02757 -6.28792
upperback 1.91567 0.105975 -0.758762
thorax 12.7942 -0.397779 2.75605
lowerneck 26.7928 -2.9443 1.98393
upperneck 19.8775 -9.90609 2.41008
head 2.5353 -6.98262 0.929138
rclavicle -5.59082e-016 -7.95139e-016
rhumerus -1118.3 -44.0783 1124.1
rradius 27.9173
rwrist -9.62951
rhand -33.1581 -2.27902
rfingers 7.12502
rthumb -6.36686 -32.1633
lclavicle -5.59082e-016 -7.95139e-016
lhumerus -19.5798 48.3573 -36.0973
lradius 24.2555
lwrist -4.79188
lhand -28.7243 19.6707
lfingers 7.12502
lthumb -2.0854 49.6402
rfemur -14.5406 -15.2781 11.6012
rtibia 31.1323
rfoot -15.6723 12.9996
rtoes -23.7309
lfemur -13.7047 5.04719 -18.0758
ltibia 28.2568
lfoot -8.51359 -14.9769
ltoes 1.84592
86
root 0.423155 19.3896 2.09844 -172.124 -3.4025 176.981
lowerback -19.052 -1.03463 -6.2372
upperback 2.17818 0.112319 -0.641
thorax 13.228 -0.409435 2.86112
lowerneck 27.365 -2.84432 1.56377
upperneck 19.2111 -9.71232 2.62177
head 2.23402 -6.88754 1.10988
rclavicle 1.29955e-014 -4.57205e-015
rhumerus -1121.41 -40.7639 1122.95
rradius 27.6127
rwrist -13.1848
rhand -32.2998 -3.83053
rfingers 7.12502
rthumb -5.53817 -33.7382
lclavicle 1.29955e-014 -4.57205e-015
lhumerus -23.3476 45.9654 -36.2262
lradius 24.0593
lwrist -3.30777
lhand -27.7021 19.6593
lfingers 7.12502
lthumb -1.09819 49.6363
rfemur -14.6713 -15.3542 11.7156
rtibia 31.1465
rfoot -15.668 13.0029
rtoes -24.0516
lfemur -13.8229 5.11237 -17.9566
ltibia 28.2418
lfoot -8.36946 -15.0883
ltoes 2.48375
87
root 0.423132 19.3886 2.11151 -172.074 -3.36896 177.083
lowerback -19.2912 -1.02825 -6.14464
upperback 2.46117 0.128434 -0.536349
thorax 13.6989 -0.415001 2.9315
lowerneck 27.9348 -2.78086 1.21578
upperneck 18.4518 -9.50495 2.73316
head 1.89075 -6.77053 1.24779
rclavicle -1.09083e-014 -1.17283e-014
rhumerus -1124.3 -37.7142 1121.16
rradius 27.4268
rwrist -16.246
rhand -31.2335 -5.46509
rfingers 7.12502
rthumb -4.50863 -35.3971
lclavicle -1.09083e-014 -1.17283e-014
lhumerus -26.6618 43.5575 -35.5959
lradius 23.8503
lwrist -1.74396
lhand -27.0713 19.9379
lfingers 7.12502
lthumb -0.488987 49.9171
rfemur -14.7968 -15.4388 11.8216
rtibia 31.1613
rfoot -15.6478 13.0847
rtoes -24.3211
lfemur -13.914 5.21539 -17.8518
ltibia 28.2188
lfoot -8.3348 -15.1423
ltoes 2.70247
88
root 0.423469 19.384 2.12892 -172.113 -3.33431 177.157
lowerback -19.4207 -0.993893 -6.08251
upperback 2.76245 0.180708 -0.441931
thorax 14.126 -0.405514 3.01952
lowerneck 28.5132 -2.76912 0.978118
upperneck 17.6462 -9.32123 2.80266
head 1.52523 -6.65282 1.35674
rclavicle -7.67806e-015 5.46658e-015
rhumerus -1127.04 -35.0418 1118.87
rradius 27.5071
rwrist -19.8007
rhand -31.1988 -6.80525
rfingers 7.12502
rthumb -4.47514 -36.738
lclavicle -7.67806e-015 5.46658e-015
lhumerus -29.426 41.4141 -34.1846
lradius 23.5864
lwrist 0.604025
lhand -27.0992 19.8613
lfingers 7.12502
lthumb -0.515851 49.8404
rfemur -14.8287 -15.457 11.8821
rtibia 31.187
rfoot -15.7717 13.1108
rtoes -24.8457
lfemur -13.9084 5.32959 -17.7664
ltibia 28.1803
lfoot -8.29803 -15.2318
ltoes 3.13246
89
root 0.423233 19.3785 2.14957 -172.196 -3.28424 177.176
lowerback -19.4871 -0.970981 -6.06315
upperback 3.07125 0.223111 -0.36571
thorax 14.5285 -0.403812 3.10873
lowerneck 28.9396 -2.74339 0.793353
upperneck 16.9958 -9.13945 2.80422
head 1.23172 -6.53472 1.42124
rclavicle 1.30452e-015 1.58034e-014
rhumerus -1129.63 -32.9738 1116.31
rradius 27.5996
rwrist -22.7682
rhand -31.3339 -7.66349
rfingers 7.12502
rthumb -4.60556 -37.5934
lclavicle 1.30452e-015 1.58034e-014
lhumerus -32.0394 39.667 -32.5083
lradius 23.2312
lwrist 2.79575
lhand -27.0108 19.6927
lfingers 7.12502
lthumb -0.430478 49.672
rfemur -14.8186 -15.5121 11.862
rtibia 31.2168
rfoot -15.8824 13.2113
rtoes -25.1721
lfemur -13.8562 5.40298 -17.7506
ltibia 28.1368
lfoot -8.35114 -15.2767
ltoes 3.18099
